<?xml version="1.0" encoding="utf-8"?>
<!-- Generator: Adobe Illustrator 24.1.2, SVG Export Plug-In . SVG Version: 6.00 Build 0)  -->
<svg version="1.1" id="Layer_1" xmlns="http://www.w3.org/2000/svg" xmlns:xlink="http://www.w3.org/1999/xlink" x="0px" y="0px"
	 viewBox="0 0 2000 2560" style="enable-background:new 0 0 2000 2560;" xml:space="preserve">
<style type="text/css">
	.st0{fill:#FFFFFF;}
	.st1{fill:#FF931E;}
	.st2{fill:#F7931E;}
	.st3{stroke:#F7931E;stroke-width:12;stroke-miterlimit:10;}
</style>
<g>
	<g>
		<rect x="3" width="1993" height="2560"/>
	</g>
	<g>
		<g>
			<line class="st0" x1="622.52" y1="1529.69" x2="1153.27" y2="1317.03"/>
			
				<rect x="602.01" y="1413.36" transform="matrix(0.9283 -0.3719 0.3719 0.9283 -465.7022 432.3573)" class="st0" width="571.77" height="20"/>
		</g>
		<g>
			<line class="st0" x1="1186.21" y1="1868.49" x2="1575.09" y2="1717.11"/>
			
				<rect x="1171.99" y="1782.8" transform="matrix(0.9319 -0.3628 0.3628 0.9319 -556.3241 622.9882)" class="st0" width="417.31" height="20"/>
		</g>
		<g>
			<line class="st0" x1="216.94" y1="1423.58" x2="563.12" y2="1514.32"/>
			
				<rect x="380.03" y="1290.01" transform="matrix(0.2536 -0.9673 0.9673 0.2536 -1129.8093 1473.7777)" class="st0" width="20" height="357.88"/>
		</g>
		<g>
			<line class="st0" x1="578.41" y1="1561.1" x2="502.21" y2="1825.06"/>
			<polygon class="st0" points="511.8,1828.16 492.62,1821.96 568.82,1558 588,1564.2 			"/>
		</g>
		<g>
			<line class="st0" x1="150.03" y1="2036.69" x2="475.58" y2="1903.33"/>
			
				<rect x="136.91" y="1961.01" transform="matrix(0.9254 -0.3791 0.3791 0.9254 -723.4379 265.6088)" class="st0" width="351.8" height="18"/>
		</g>
		<g>
			<line class="st0" x1="1323.01" y1="1296.61" x2="1838.56" y2="1452.8"/>
			
				<rect x="1571.79" y="1105.36" transform="matrix(0.2899 -0.957 0.957 0.2899 -193.1924 2489.0159)" class="st0" width="18" height="538.69"/>
		</g>
		<g>
			<line class="st0" x1="1224.21" y1="1391.52" x2="1126.67" y2="1825.24"/>
			
				<rect x="953.17" y="1599.38" transform="matrix(0.2194 -0.9756 0.9756 0.2194 -651.654 2402.2805)" class="st0" width="444.55" height="18"/>
		</g>
		<g>
			<line class="st0" x1="547.78" y1="1868.49" x2="1065.87" y2="1882.91"/>
			
				<rect x="797.83" y="1616.55" transform="matrix(0.0278 -0.9996 0.9996 0.0278 -1090.5891 2630.0359)" class="st0" width="18" height="518.29"/>
		</g>
		<g>
			<ellipse class="st1" cx="608.79" cy="1526.66" rx="49.03" ry="46.51"/>
			<path class="st0" d="M608.79,1577.66c-29.52,0-53.53-22.88-53.53-51.01s24.01-51.01,53.53-51.01s53.53,22.88,53.53,51.01
				S638.31,1577.66,608.79,1577.66z M608.79,1484.65c-24.56,0-44.53,18.84-44.53,42.01c0,23.16,19.98,42.01,44.53,42.01
				s44.53-18.84,44.53-42.01C653.33,1503.49,633.35,1484.65,608.79,1484.65z"/>
		</g>
		<g>
			<ellipse class="st1" cx="1223.57" cy="1297.21" rx="98.8" ry="93.71"/>
			<path class="st0" d="M1223.57,1395.42c-56.96,0-103.3-44.06-103.3-98.21c0-54.15,46.34-98.21,103.3-98.21
				s103.3,44.06,103.3,98.21C1326.88,1351.37,1280.54,1395.42,1223.57,1395.42z M1223.57,1208c-52,0-94.3,40.02-94.3,89.21
				c0,49.19,42.3,89.21,94.3,89.21s94.3-40.02,94.3-89.21C1317.88,1248.02,1275.57,1208,1223.57,1208z"/>
		</g>
		<g>
			<ellipse class="st1" cx="1862.63" cy="1479.23" rx="37.37" ry="35.44"/>
			<path class="st0" d="M1862.63,1519.17c-23.09,0-41.87-17.92-41.87-39.94c0-22.02,18.78-39.94,41.87-39.94
				s41.87,17.92,41.87,39.94C1904.5,1501.25,1885.72,1519.17,1862.63,1519.17z M1862.63,1448.29c-18.12,0-32.87,13.88-32.87,30.94
				s14.74,30.94,32.87,30.94s32.87-13.88,32.87-30.94S1880.76,1448.29,1862.63,1448.29z"/>
		</g>
		<g>
			<ellipse class="st1" cx="1621.32" cy="1691.28" rx="53.2" ry="50.46"/>
			<path class="st0" d="M1621.32,1746.24c-31.82,0-57.7-24.65-57.7-54.96s25.88-54.96,57.7-54.96c31.82,0,57.7,24.66,57.7,54.96
				S1653.14,1746.24,1621.32,1746.24z M1621.32,1645.32c-26.85,0-48.7,20.62-48.7,45.96c0,25.34,21.85,45.96,48.7,45.96
				c26.85,0,48.7-20.62,48.7-45.96C1670.02,1665.94,1648.18,1645.32,1621.32,1645.32z"/>
		</g>
		<g>
			<ellipse class="st1" cx="1132.44" cy="1877.84" rx="60.98" ry="57.83"/>
			<path class="st0" d="M1132.44,1940.17c-36.1,0-65.48-27.96-65.48-62.33c0-34.37,29.37-62.33,65.48-62.33
				c36.1,0,65.48,27.96,65.48,62.33C1197.92,1912.21,1168.55,1940.17,1132.44,1940.17z M1132.44,1824.5
				c-31.14,0-56.48,23.93-56.48,53.33c0,29.41,25.34,53.33,56.48,53.33s56.48-23.93,56.48-53.33
				C1188.92,1848.43,1163.58,1824.5,1132.44,1824.5z"/>
		</g>
		<g>
			<ellipse class="st1" cx="501.55" cy="1867.89" rx="45.6" ry="43.25"/>
			<path class="st0" d="M501.55,1915.64c-27.63,0-50.1-21.42-50.1-47.75s22.48-47.75,50.1-47.75c27.63,0,50.1,21.42,50.1,47.75
				S529.17,1915.64,501.55,1915.64z M501.55,1829.14c-22.66,0-41.1,17.38-41.1,38.75c0,21.37,18.44,38.75,41.1,38.75
				s41.1-17.38,41.1-38.75C542.65,1846.52,524.21,1829.14,501.55,1829.14z"/>
		</g>
		<g>
			<ellipse class="st1" cx="118.52" cy="2051.88" rx="46.52" ry="44.12"/>
			<path class="st0" d="M118.52,2100.5c-28.13,0-51.02-21.81-51.02-48.62s22.89-48.62,51.02-48.62s51.02,21.81,51.02,48.62
				S146.65,2100.5,118.52,2100.5z M118.52,2012.26c-23.17,0-42.02,17.77-42.02,39.62s18.85,39.62,42.02,39.62
				s42.02-17.77,42.02-39.62S141.69,2012.26,118.52,2012.26z"/>
		</g>
		<g>
			<ellipse class="st1" cx="179.8" cy="1402.68" rx="42.8" ry="40.59"/>
			<path class="st0" d="M179.8,1447.78c-26.08,0-47.3-20.23-47.3-45.09c0-24.87,21.22-45.1,47.3-45.1c26.08,0,47.3,20.23,47.3,45.1
				C227.1,1427.55,205.88,1447.78,179.8,1447.78z M179.8,1366.59c-21.12,0-38.3,16.19-38.3,36.1c0,19.9,17.18,36.09,38.3,36.09
				c21.12,0,38.3-16.19,38.3-36.09C218.1,1382.78,200.92,1366.59,179.8,1366.59z"/>
		</g>
	</g>
	<g>
		<rect y="2281" class="st2" width="2000" height="179"/>
	</g>
	<g>
		<path d="M462.83,2396.67h5.88v-44.32h-5.88v-2.25h24.74c3.53,0,6.55,0.34,9.07,1.03c2.52,0.69,4.81,1.8,6.89,3.35
			c2.98,2.16,5.3,5.02,6.98,8.58c1.68,3.56,2.52,7.4,2.52,11.52c0,4.15-0.86,8.01-2.58,11.59c-1.72,3.58-4.1,6.48-7.15,8.69
			c-2.01,1.45-4.32,2.52-6.93,3.2c-2.61,0.69-5.65,1.03-9.11,1.03h-24.45V2396.67z M480.86,2396.67h6.17c2.78,0,4.8-0.21,6.06-0.63
			c1.26-0.42,2.31-1.15,3.16-2.21c1.09-1.35,1.86-3.21,2.3-5.6c0.45-2.38,0.67-5.97,0.67-10.79V2374c0-5.4-0.15-9.26-0.45-11.6
			c-0.3-2.33-0.82-4.2-1.54-5.59c-0.87-1.64-2-2.8-3.39-3.46c-1.39-0.66-3.66-0.99-6.8-0.99h-6.17V2396.67z"/>
		<path d="M519.21,2399.1v-2.43h5.88v-44.32h-5.04v-2.25h40.27l0.15,12.88h-2.43c-1.65-4.17-3.31-6.99-5.01-8.45
			c-1.69-1.46-4.16-2.19-7.4-2.19h-8.35v20.13c0.19,0.03,0.42,0.04,0.67,0.06c0.25,0.01,0.6,0.02,1.03,0.02
			c2.64,0,4.63-0.71,5.99-2.12c1.35-1.41,2.24-3.7,2.65-6.86h2.43v20.91h-2.43c-0.27-3.39-1.09-5.82-2.47-7.29s-3.53-2.21-6.46-2.21
			h-1.42v21.68h8.09c3.99,0,7.11-1.07,9.36-3.2s4.01-5.71,5.3-10.71h2.29l-0.51,16.34H519.21z"/>
		<path d="M569.61,2399.69v-14.39h2.83c1.23,4.17,3.07,7.33,5.5,9.46c2.43,2.13,5.41,3.2,8.94,3.2c3.17,0,5.79-0.86,7.87-2.58
			c2.08-1.72,3.12-3.9,3.12-6.55c0-1.42-0.25-2.59-0.74-3.51c-0.5-0.92-1.34-1.77-2.52-2.56c-1.35-0.91-4.03-1.83-8.02-2.76
			c-1.48-0.34-2.6-0.61-3.37-0.81c-4.67-1.2-8.06-2.97-10.18-5.3s-3.17-5.46-3.17-9.39c0-4.59,1.41-8.3,4.23-11.13
			c2.82-2.83,6.5-4.25,11.05-4.25c1.86,0,3.6,0.26,5.21,0.79c1.61,0.53,3.13,1.32,4.55,2.38l2.65-2.17h2.32l0.29,12.96h-2.43
			c-0.94-3.8-2.52-6.7-4.72-8.69c-2.2-1.99-4.95-2.98-8.24-2.98c-2.73,0-4.98,0.67-6.73,2.02c-1.75,1.35-2.63,3.06-2.63,5.12
			c0,3.09,3.23,5.36,9.69,6.81c0.87,0.2,1.54,0.34,2,0.44c6.02,1.42,10.25,3.44,12.68,6.06c2.43,2.61,3.65,6.33,3.65,11.13
			c0,4.96-1.55,9.07-4.66,12.35c-3.11,3.28-7.02,4.92-11.74,4.92c-2.4,0-4.5-0.28-6.31-0.83c-1.81-0.55-3.51-1.43-5.08-2.63
			l-3.34,2.91H569.61z"/>
		<path d="M608.61,2399.1v-2.43h5.95v-44.32h-5.95v-2.25h24.38v2.25h-5.95v44.32h5.95v2.43H608.61z"/>
		<path d="M686.62,2382.57h-4.46v0.63c0,5.33-1.72,9.5-5.15,12.52c-3.44,3.02-8.18,4.53-14.22,4.53c-2.44,0-4.71-0.31-6.79-0.92
			c-2.08-0.61-4-1.55-5.77-2.8c-3.6-2.53-6.36-5.66-8.27-9.4c-1.91-3.74-2.87-7.9-2.87-12.46c0-3.53,0.67-6.88,2.01-10.03
			s3.34-6.03,6-8.63c2.27-2.26,4.76-3.97,7.46-5.14c2.7-1.17,5.51-1.75,8.44-1.75c2.42,0,4.6,0.32,6.53,0.96
			c1.93,0.64,3.63,1.61,5.08,2.91l2.72-2.95h2.18l0.36,14.17h-2.69c-1.26-4.2-3.02-7.38-5.3-9.55c-2.27-2.17-4.98-3.26-8.13-3.26
			c-2.32,0-4.2,0.4-5.62,1.2c-1.43,0.8-2.5,2.06-3.23,3.77c-0.56,1.28-0.94,3.11-1.16,5.5s-0.33,7.16-0.33,14.3
			c0,10.06,0.6,16.21,1.81,18.44c1.21,2.23,3.53,3.35,6.97,3.35c2.35,0,4.15-0.53,5.42-1.58c1.27-1.05,1.9-2.56,1.9-4.53v-9.28
			h-6.31v-2.32h23.4V2382.57z"/>
		<path d="M690.1,2399.1v-2.43h3.74c0.97,0,1.64-0.21,2.01-0.64c0.37-0.43,0.56-1.27,0.56-2.52v-38.58c0-1.06-0.21-1.75-0.62-2.08
			c-0.41-0.33-1.27-0.5-2.58-0.5h-2.98v-2.25h19.56l20.35,28.2V2356c0-1.5-0.22-2.48-0.67-2.95c-0.45-0.47-1.41-0.7-2.88-0.7h-3.12
			v-2.25h15.46v2.25h-2.83c-1.21,0-2.04,0.25-2.5,0.75c-0.46,0.5-0.69,1.47-0.69,2.89v44.25h-2l-31.6-44.1v37.84
			c0,0.86,0.24,1.52,0.71,1.99c0.47,0.47,1.15,0.7,2.05,0.7h4.32v2.43H690.1z"/>
		<path d="M743.51,2399.1v-2.43h5.88v-44.32h-5.04v-2.25h40.27l0.15,12.88h-2.43c-1.65-4.17-3.31-6.99-5.01-8.45
			c-1.69-1.46-4.16-2.19-7.4-2.19h-8.35v20.13c0.19,0.03,0.42,0.04,0.67,0.06c0.25,0.01,0.6,0.02,1.03,0.02
			c2.64,0,4.63-0.71,5.99-2.12c1.35-1.41,2.24-3.7,2.65-6.86h2.43v20.91h-2.43c-0.27-3.39-1.09-5.82-2.47-7.29s-3.53-2.21-6.46-2.21
			h-1.42v21.68h8.09c3.99,0,7.11-1.07,9.36-3.2s4.01-5.71,5.3-10.71h2.29l-0.51,16.34H743.51z"/>
		<path d="M792.49,2396.67h5.73v-44.32h-5.73v-2.25h27c5.56,0,9.83,0.92,12.79,2.76c2.96,1.84,4.45,4.49,4.45,7.95
			c0,3.51-1.39,6.29-4.17,8.36s-6.74,3.21-11.86,3.46v0.63c5.25,0.71,8.96,2.37,11.14,4.99c2.18,2.61,3.27,6.78,3.27,12.5
			c0,2.36,0.23,3.91,0.69,4.66c0.46,0.75,1.27,1.12,2.43,1.12c0.46,0,0.96-0.05,1.51-0.17c0.54-0.11,1.13-0.28,1.76-0.5l0.76,2.02
			c-1.6,0.74-3.13,1.3-4.59,1.69c-1.46,0.39-2.74,0.59-3.83,0.59c-2.01,0-3.83-0.31-5.46-0.92s-2.93-1.47-3.9-2.58
			c-1.89-2.13-2.93-6.11-3.12-11.93c-0.02-0.78-0.05-1.37-0.07-1.77c-0.14-3.39-0.93-5.74-2.36-7.07c-1.43-1.33-3.83-1.99-7.22-1.99
			h-1.27v22.75h6.31v2.43h-24.24V2396.67z M810.42,2371.49h6.09c2.76,0,4.63-0.58,5.61-1.75c0.98-1.17,1.47-3.64,1.47-7.42
			c0-4.76-0.41-7.61-1.21-8.56c-0.81-0.94-2.76-1.42-5.86-1.42h-6.09V2371.49z"/>
		<path d="M912.12,2400.24l-19.41-47.89h-4.1v-2.25h50.76v2.25h-2.14c-0.73,0-1.3,0.17-1.72,0.5s-0.84,0.98-1.25,1.93l-4.75,10.71
			l8.02,18.92l9.72-27.2c0.22-0.59,0.39-1.15,0.51-1.68c0.12-0.53,0.18-0.96,0.18-1.31c0-0.69-0.18-1.17-0.53-1.45
			c-0.35-0.28-1-0.42-1.94-0.42h-2.98v-2.25h14.11v2.25h-2.29c-1.09,0-1.96,0.32-2.63,0.96c-0.67,0.64-1.37,2-2.12,4.09
			l-15.31,42.85h-2l-8.71-21.13l-9.43,21.13H912.12z M918.18,2385.37l4.1-9.28l-9.94-23.89h-7.58L918.18,2385.37z M928.23,2362.69
			l4.54-10.49h-8.92L928.23,2362.69z"/>
		<path d="M948.98,2399.1v-2.43h2.97c0.8,0,1.46-0.27,2-0.81c0.53-0.54,1.08-1.52,1.63-2.95l16.58-43.8h2.9l18.14,47.56h4.28v2.43
			h-23.4v-2.43h5.88l-4.25-11.45h-14.69l-3.19,8.36c-0.07,0.15-0.13,0.37-0.16,0.68c-0.04,0.31-0.05,0.67-0.05,1.09
			c0,0.42,0.19,0.74,0.56,0.98c0.38,0.23,0.9,0.35,1.58,0.35h4.32v2.43H948.98z M961.83,2382.83h13.1l-6.39-17.19L961.83,2382.83z"
			/>
		<path d="M1047.05,2412.42v2.5c-1.5,0.15-2.95,0.26-4.35,0.33c-1.4,0.07-2.71,0.11-3.91,0.11c-6.91,0-11.86-1.06-14.86-3.18
			c-3-2.12-4.49-5.6-4.49-10.44c0-0.37,0.01-0.75,0.02-1.16c0.01-0.41,0.03-0.83,0.05-1.27c-5.49-1.94-9.89-5.15-13.19-9.64
			c-3.3-4.49-4.95-9.5-4.95-15.02c0-3.29,0.63-6.44,1.88-9.46s3.08-5.79,5.48-8.32c2.56-2.63,5.28-4.58,8.16-5.85
			c2.88-1.28,6.02-1.91,9.43-1.91c3.43,0,6.59,0.64,9.46,1.91c2.88,1.28,5.6,3.23,8.16,5.85c2.42,2.53,4.26,5.31,5.53,8.34
			c1.27,3.03,1.9,6.18,1.9,9.44c0,5.55-1.67,10.59-5,15.13c-3.33,4.54-7.7,7.72-13.11,9.53c-0.07,0.71-0.13,1.39-0.16,2.04
			s-0.05,1.28-0.05,1.9c0,3.44,0.72,5.88,2.17,7.33c1.45,1.45,3.86,2.17,7.24,2.17c0.99,0,2.45-0.1,4.38-0.29L1047.05,2412.42z
			 M1015.81,2374.66c0,6.28,0.1,10.61,0.31,12.98c0.21,2.37,0.57,4.13,1.11,5.28c0.77,1.79,1.87,3.08,3.29,3.87
			c1.42,0.79,3.36,1.18,5.8,1.18c2.46,0,4.41-0.39,5.83-1.18c1.42-0.79,2.52-2.07,3.3-3.87c0.55-1.25,0.94-3.13,1.16-5.63
			c0.22-2.5,0.33-6.71,0.33-12.63c0-5.89-0.11-10.09-0.33-12.59c-0.22-2.5-0.6-4.38-1.16-5.63c-0.77-1.79-1.87-3.08-3.3-3.87
			c-1.42-0.79-3.37-1.18-5.83-1.18c-2.44,0-4.37,0.39-5.8,1.18c-1.42,0.79-2.52,2.07-3.29,3.87c-0.53,1.15-0.9,2.91-1.11,5.28
			C1015.92,2364.09,1015.81,2368.4,1015.81,2374.66z"/>
		<path d="M1055.11,2399.1v-2.43h2.97c0.8,0,1.46-0.27,2-0.81c0.53-0.54,1.08-1.52,1.63-2.95l16.58-43.8h2.9l18.14,47.56h4.28v2.43
			h-23.4v-2.43h5.88l-4.25-11.45h-14.69l-3.19,8.36c-0.07,0.15-0.13,0.37-0.16,0.68c-0.04,0.31-0.05,0.67-0.05,1.09
			c0,0.42,0.19,0.74,0.56,0.98c0.38,0.23,0.9,0.35,1.58,0.35h4.32v2.43H1055.11z M1067.95,2382.83h13.1l-6.39-17.19L1067.95,2382.83
			z"/>
		<path d="M1107.65,2399.69v-14.39h2.83c1.23,4.17,3.07,7.33,5.5,9.46c2.43,2.13,5.41,3.2,8.94,3.2c3.17,0,5.79-0.86,7.87-2.58
			s3.12-3.9,3.12-6.55c0-1.42-0.25-2.59-0.74-3.51c-0.5-0.92-1.34-1.77-2.52-2.56c-1.35-0.91-4.03-1.83-8.02-2.76
			c-1.48-0.34-2.6-0.61-3.38-0.81c-4.67-1.2-8.06-2.97-10.18-5.3c-2.12-2.33-3.17-5.46-3.17-9.39c0-4.59,1.41-8.3,4.23-11.13
			c2.82-2.83,6.5-4.25,11.05-4.25c1.86,0,3.6,0.26,5.21,0.79c1.61,0.53,3.13,1.32,4.55,2.38l2.65-2.17h2.32l0.29,12.96h-2.43
			c-0.94-3.8-2.52-6.7-4.72-8.69c-2.2-1.99-4.95-2.98-8.24-2.98c-2.73,0-4.98,0.67-6.73,2.02c-1.75,1.35-2.63,3.06-2.63,5.12
			c0,3.09,3.23,5.36,9.69,6.81c0.87,0.2,1.54,0.34,2,0.44c6.02,1.42,10.25,3.44,12.68,6.06s3.65,6.33,3.65,11.13
			c0,4.96-1.55,9.07-4.66,12.35c-3.11,3.28-7.02,4.92-11.74,4.92c-2.39,0-4.5-0.28-6.31-0.83c-1.81-0.55-3.51-1.43-5.08-2.63
			l-3.34,2.91H1107.65z"/>
		<path d="M1218.63,2382.57h-4.46v0.63c0,5.33-1.72,9.5-5.15,12.52s-8.18,4.53-14.22,4.53c-2.44,0-4.7-0.31-6.78-0.92
			c-2.08-0.61-4-1.55-5.77-2.8c-3.6-2.53-6.36-5.66-8.27-9.4s-2.87-7.9-2.87-12.46c0-3.53,0.67-6.88,2.01-10.03s3.34-6.03,6-8.63
			c2.27-2.26,4.76-3.97,7.46-5.14c2.7-1.17,5.51-1.75,8.44-1.75c2.42,0,4.6,0.32,6.53,0.96c1.93,0.64,3.63,1.61,5.08,2.91l2.72-2.95
			h2.18l0.36,14.17h-2.69c-1.26-4.2-3.02-7.38-5.3-9.55c-2.27-2.17-4.98-3.26-8.13-3.26c-2.32,0-4.2,0.4-5.62,1.2
			c-1.43,0.8-2.5,2.06-3.23,3.77c-0.56,1.28-0.94,3.11-1.16,5.5s-0.33,7.16-0.33,14.3c0,10.06,0.6,16.21,1.81,18.44
			c1.21,2.23,3.53,3.35,6.97,3.35c2.35,0,4.15-0.53,5.42-1.58c1.27-1.05,1.91-2.56,1.91-4.53v-9.28h-6.31v-2.32h23.4V2382.57z"/>
		<path d="M1222.41,2396.67h5.73v-44.32h-5.73v-2.25h26.99c5.56,0,9.83,0.92,12.79,2.76c2.96,1.84,4.45,4.49,4.45,7.95
			c0,3.51-1.39,6.29-4.17,8.36s-6.74,3.21-11.86,3.46v0.63c5.25,0.71,8.96,2.37,11.14,4.99c2.18,2.61,3.27,6.78,3.27,12.5
			c0,2.36,0.23,3.91,0.69,4.66c0.46,0.75,1.27,1.12,2.43,1.12c0.46,0,0.96-0.05,1.51-0.17s1.13-0.28,1.76-0.5l0.76,2.02
			c-1.6,0.74-3.13,1.3-4.59,1.69s-2.74,0.59-3.83,0.59c-2.01,0-3.83-0.31-5.46-0.92s-2.93-1.47-3.9-2.58
			c-1.89-2.13-2.93-6.11-3.12-11.93c-0.02-0.78-0.05-1.37-0.07-1.77c-0.14-3.39-0.93-5.74-2.36-7.07c-1.43-1.33-3.83-1.99-7.22-1.99
			h-1.27v22.75h6.31v2.43h-24.24V2396.67z M1240.33,2371.49h6.09c2.76,0,4.63-0.58,5.61-1.75c0.98-1.17,1.47-3.64,1.47-7.42
			c0-4.76-0.41-7.61-1.21-8.56c-0.81-0.94-2.76-1.42-5.86-1.42h-6.09V2371.49z"/>
		<path d="M1273.24,2399.1v-2.43h2.97c0.8,0,1.46-0.27,2-0.81c0.53-0.54,1.08-1.52,1.63-2.95l16.58-43.8h2.9l18.14,47.56h4.28v2.43
			h-23.4v-2.43h5.88l-4.25-11.45h-14.69l-3.19,8.36c-0.07,0.15-0.13,0.37-0.16,0.68c-0.04,0.31-0.05,0.67-0.05,1.09
			c0,0.42,0.19,0.74,0.56,0.98c0.38,0.23,0.9,0.35,1.58,0.35h4.32v2.43H1273.24z M1286.08,2382.83h13.1l-6.39-17.19L1286.08,2382.83
			z"/>
		<path d="M1324.36,2396.67h5.88v-44.32h-5.88v-2.25h25c6.8,0,11.85,1.02,15.17,3.07c3.31,2.05,4.97,5.2,4.97,9.44
			c0,4.44-1.71,7.77-5.13,9.99c-3.42,2.22-8.56,3.33-15.4,3.33h-6.53v20.72h6.86v2.43h-24.93V2396.67z M1342.43,2352.35V2374h6.79
			c2.73,0,4.54-0.59,5.42-1.77c0.88-1.18,1.32-4.33,1.32-9.46c0-4.64-0.44-7.53-1.32-8.69s-2.8-1.73-5.75-1.73H1342.43z"/>
		<path d="M1373.2,2399.1v-2.43h5.88v-44.32h-5.88v-2.17h23.95v2.17h-5.81v20.13h16.22v-20.13h-5.81v-2.17h23.84v2.17h-5.84v44.32
			h5.84v2.43h-23.84v-2.43h5.81v-21.39h-16.22v21.39h5.81v2.43H1373.2z"/>
		<path d="M1429.98,2399.1v-2.43h5.95v-44.32h-5.95v-2.25h24.38v2.25h-5.95v44.32h5.95v2.43H1429.98z"/>
		<path d="M1501.02,2384.41v14.69h-2.39l-3.27-2.72c-1.43,1.3-3.12,2.28-5.06,2.94c-1.95,0.66-4.12,0.99-6.51,0.99
			c-3.31,0-6.35-0.65-9.11-1.95c-2.76-1.3-5.32-3.29-7.69-5.96c-2.35-2.6-4.1-5.38-5.26-8.34c-1.16-2.96-1.74-6.12-1.74-9.48
			c0-3.31,0.59-6.44,1.76-9.37c1.17-2.93,2.94-5.71,5.32-8.34c2.37-2.63,4.96-4.59,7.76-5.89c2.81-1.3,5.87-1.95,9.18-1.95
			c2.03,0,3.95,0.29,5.77,0.88s3.56,1.47,5.22,2.65l2.61-2.54h2.43l0.29,13.55h-2.58c-1.6-4.34-3.48-7.47-5.66-9.39
			s-4.92-2.87-8.24-2.87c-3.73,0-6.25,1.24-7.58,3.72c-1.33,2.48-2,8.7-2,18.66c0,5.25,0.06,9.18,0.18,11.78
			c0.12,2.6,0.33,4.48,0.62,5.63c0.6,2.46,1.6,4.22,2.97,5.3c1.38,1.08,3.31,1.62,5.81,1.62c3.41,0,6.46-1.27,9.16-3.81
			c2.7-2.54,4.45-5.81,5.24-9.81H1501.02z"/>
		<path d="M1509.04,2399.69v-14.39h2.83c1.23,4.17,3.07,7.33,5.5,9.46c2.43,2.13,5.41,3.2,8.94,3.2c3.17,0,5.79-0.86,7.87-2.58
			s3.12-3.9,3.12-6.55c0-1.42-0.25-2.59-0.74-3.51c-0.5-0.92-1.34-1.77-2.52-2.56c-1.35-0.91-4.03-1.83-8.02-2.76
			c-1.48-0.34-2.6-0.61-3.38-0.81c-4.67-1.2-8.06-2.97-10.18-5.3c-2.12-2.33-3.17-5.46-3.17-9.39c0-4.59,1.41-8.3,4.23-11.13
			c2.82-2.83,6.5-4.25,11.05-4.25c1.86,0,3.6,0.26,5.21,0.79c1.61,0.53,3.13,1.32,4.55,2.38l2.65-2.17h2.32l0.29,12.96h-2.43
			c-0.94-3.8-2.52-6.7-4.72-8.69c-2.2-1.99-4.95-2.98-8.24-2.98c-2.73,0-4.98,0.67-6.73,2.02c-1.75,1.35-2.63,3.06-2.63,5.12
			c0,3.09,3.23,5.36,9.69,6.81c0.87,0.2,1.54,0.34,2,0.44c6.02,1.42,10.25,3.44,12.68,6.06s3.65,6.33,3.65,11.13
			c0,4.96-1.55,9.07-4.66,12.35c-3.11,3.28-7.02,4.92-11.74,4.92c-2.39,0-4.5-0.28-6.31-0.83c-1.81-0.55-3.51-1.43-5.08-2.63
			l-3.34,2.91H1509.04z"/>
	</g>
	<g>
		<path class="st0" d="M121.65,125.69H81.21V98.1h109.53v27.6h-40.29v128.13h-28.8V125.69z"/>
		<path class="st0" d="M208.58,98.1h28.78v60.74h53.55V98.1h28.78v155.73h-28.78v-67.39h-53.55v67.39h-28.78V98.1z"/>
		<path class="st0" d="M443.21,186.66h-63.65v39.56h70.22l-3.41,27.6h-94.73V98.1h94.38v27.6h-66.45v33.37h63.65V186.66z"/>
	</g>
	<g>
		<path class="st0" d="M1328.18,814.49v62.33h-28.12V721.1h58.48c29.02,0,44.64,18.7,44.64,42.75c0,20.9-9.72,32.21-19.34,36.84
			c6.59,2.85,16.54,10.88,16.54,38.75v7.69c0,10.47,0.08,22.4,1.91,29.69h-27.27c-2.34-6.78-2.78-18.43-2.78-34.97v-2.28
			c0-17.03-3.67-25.09-25.13-25.09H1328.18z M1328.18,787.69h24.13c15.76,0,21.83-7.01,21.83-20.04c0-12.67-7.07-19.76-21.15-19.76
			h-24.82V787.69z"/>
		<path class="st0" d="M1454.9,721.1v92.79c0,29.88,13.13,38.74,27.49,38.74c16.47,0,26.81-10.47,26.81-38.74V721.1h28.8v91.12
			c0,53.25-26.64,66.81-56,66.81c-30.04,0-55.93-14.16-55.93-66.17V721.1H1454.9z"/>
		<path class="st0" d="M1568.41,721.1h28.78v128.13h66.3l-3.29,27.6h-91.79V721.1z"/>
		<path class="st0" d="M1772.15,809.66h-63.65v39.56h70.22l-3.41,27.6h-94.73V721.1h94.38v27.6h-66.45v33.37h63.65V809.66z"/>
		<path class="st0" d="M1821.11,831.18c3.03,15.64,12.62,22.49,28.03,22.49c15.36,0,21.93-7.1,21.93-18.5
			c0-12.67-6.42-18.17-29.18-24.37c-36.22-9.95-45.18-25.36-45.18-46.39c0-27.14,17.35-45.57,48.86-45.57
			c35.34,0,49.42,22.23,51.32,45.01h-29c-1.39-9.58-5.92-19.99-23.08-19.99c-11.68,0-18.73,5.65-18.73,16.7
			c0,10.83,5.65,15.22,27.16,21.06c38.71,10.67,47.2,27.52,47.2,49.48c0,28.44-18.39,47.94-53.57,47.94
			c-33.78,0-51.58-19.46-54.77-47.85H1821.11z"/>
	</g>
	<g>
		<path class="st2" d="M80.41,382.63h137.78c101.2,0,167.35,39.66,167.35,100.8c0,60.31-64.19,105.99-170.51,105.99H80.41V382.63z
			 M155.54,553.3h56.34c66.62,0,96.07-29.49,96.07-69.76c0-33.78-27.57-64.79-95.62-64.79h-56.78V553.3z"/>
		<path class="st2" d="M690.43,500.23H524.26v52.54h183.31l-8.91,36.65H451.35V382.63h246.39v36.65H524.26v44.31h166.17V500.23z"/>
	</g>
	<g>
		<path class="st3" d="M814.53,528.8c7.92,20.77,32.96,29.87,73.17,29.87c40.11,0,57.26-9.43,57.26-24.56
			c0-16.83-16.75-24.13-76.18-32.36c-94.56-13.21-117.94-33.68-117.94-61.6c0-36.04,45.3-60.52,127.56-60.52
			c92.26,0,129.01,29.51,133.99,59.76h-75.7c-3.63-12.73-15.46-26.55-60.25-26.55c-30.49,0-48.9,7.5-48.9,22.18
			c0,14.38,14.75,20.21,70.9,27.96c101.06,14.17,123.22,36.54,123.22,65.7c0,37.76-48,63.66-139.86,63.66
			c-88.2,0-134.65-25.84-142.98-63.54H814.53z"/>
		<path class="st3" d="M1152.28,382.63v206.79h-75.13V382.63H1152.28z"/>
		<path class="st3" d="M1537.22,589.42h-55.07c-2.9-6.36-4.8-13.46-5.75-20.39c-19.26,15.45-53.19,23.85-101.48,23.85
			c-100.86,0-157.21-45.36-157.21-104.26c0-62.16,60.76-108.99,170.29-108.99c89.41,0,142.03,30.03,150.46,65.29h-75.13
			c-7.13-13.85-25.49-30.23-76.33-30.23c-71.34,0-91.69,35.51-91.69,71.97c0,35.58,23.28,70.62,92.16,70.62
			c64.24,0,76.07-26.54,76.07-45.04v-1.87h-76.19v-36.65h149.87V589.42z"/>
		<path class="st3" d="M1613.89,589.42V382.63h93.12c43.4,46.43,123.62,130.17,139.58,152.7h0.95c-3.91-21.58-3.85-57.49-3.85-91.42
			v-61.28h68.09v206.79h-88.32c-37.33-40.41-126.22-136.6-143.43-160.49h-0.95c2.52,18.09,3.35,60.56,3.35,97.6v62.89H1613.89z"/>
	</g>
	<g>
		<path class="st2" d="M97.01,1090.05v-14.13c0-0.45-0.07-0.86-0.38-1.29l-15.64-24.57h11.1c3.51,6.03,8.06,14.06,10.32,18.4
			c1.97-4.19,6.94-12.61,10.37-18.4h10.26l-15.84,24.45c-0.19,0.28-0.37,0.46-0.37,1.28v14.26H97.01z"/>
		<path class="st2" d="M167.88,1069.92c0,11.13-7.58,20.71-22.31,20.71c-14.24,0-21.69-9.12-21.69-20.57
			c0-11.64,8.23-20.57,22.32-20.57C159.47,1049.49,167.88,1057.68,167.88,1069.92z M134.01,1069.89c0,7.81,3.89,13.71,11.93,13.71
			c8.72,0,11.81-6.44,11.81-13.57c0-7.56-3.52-13.51-11.97-13.51C137.59,1056.52,134.01,1062.1,134.01,1069.89z"/>
		<path class="st2" d="M185.74,1050.07v23.83c0,7.67,4.48,9.95,9.37,9.95c5.61,0,9.14-2.69,9.14-9.95v-23.83h9.82v23.4
			c0,13.67-9.08,17.16-19.08,17.16c-10.24,0-19.06-3.63-19.06-16.99v-23.56H185.74z"/>
		<path class="st2" d="M246.8,1078.33c1.03,4.02,4.3,5.78,9.55,5.78c5.24,0,7.48-1.82,7.48-4.75c0-3.25-2.19-4.67-9.94-6.26
			c-12.34-2.55-15.4-6.51-15.4-11.91c0-6.97,5.91-11.7,16.65-11.7c12.04,0,16.84,5.71,17.49,11.56h-9.88
			c-0.47-2.46-2.02-5.13-7.87-5.13c-3.98,0-6.38,1.45-6.38,4.29c0,2.78,1.93,3.91,9.26,5.41c13.19,2.74,16.09,7.07,16.09,12.7
			c0,7.3-6.27,12.31-18.26,12.31c-11.51,0-17.58-5-18.67-12.29H246.8z"/>
		<path class="st2" d="M281.09,1050.07h9.81v15.6h18.25v-15.6h9.81v39.99h-9.81v-17.3H290.9v17.3h-9.81V1050.07z"/>
		<path class="st2" d="M371.54,1069.92c0,11.13-7.58,20.71-22.31,20.71c-14.24,0-21.69-9.12-21.69-20.57
			c0-11.64,8.23-20.57,22.32-20.57C363.13,1049.49,371.54,1057.68,371.54,1069.92z M337.67,1069.89c0,7.81,3.89,13.71,11.93,13.71
			c8.72,0,11.81-6.44,11.81-13.57c0-7.56-3.52-13.51-11.97-13.51C341.25,1056.52,337.67,1062.1,337.67,1069.89z"/>
		<path class="st2" d="M389.4,1050.07v23.83c0,7.67,4.48,9.95,9.37,9.95c5.61,0,9.14-2.69,9.14-9.95v-23.83h9.82v23.4
			c0,13.67-9.08,17.16-19.08,17.16c-10.24,0-19.06-3.63-19.06-16.99v-23.56H389.4z"/>
		<path class="st2" d="M428.09,1050.07h9.81v32.9h22.6l-1.12,7.09h-31.28V1050.07z"/>
		<path class="st2" d="M466.32,1050.07h17.99c13.21,0,21.85,7.67,21.85,19.49c0,11.66-8.38,20.49-22.26,20.49h-17.57V1050.07z
			 M476.13,1083.07h7.35c8.7,0,12.54-5.7,12.54-13.49c0-6.53-3.6-12.53-12.48-12.53h-7.41V1083.07z"/>
		<path class="st2" d="M530.67,1090.05v-39.99h12.16c5.67,8.98,16.14,25.17,18.22,29.53h0.12c-0.51-4.17-0.5-11.12-0.5-17.68v-11.85
			h8.89v39.99h-11.53c-4.87-7.81-16.48-26.42-18.73-31.03h-0.12c0.33,3.5,0.44,11.71,0.44,18.87v12.16H530.67z"/>
		<path class="st2" d="M611.63,1072.81h-21.69v10.16h23.93l-1.16,7.09h-32.29v-39.99h32.17v7.09h-22.65v8.57h21.69V1072.81z"/>
		<path class="st2" d="M633.38,1090.05l-16.01-39.99h10.54l6.75,18.47c2.04,5.59,3.61,10.33,4.65,14.42h0.13
			c0.93-3.73,2.7-8.62,4.86-14.29l7.08-18.6h10.01l-16.43,39.99H633.38z"/>
		<path class="st2" d="M698.09,1072.81H676.4v10.16h23.93l-1.16,7.09h-32.29v-39.99h32.17v7.09H676.4v8.57h21.69V1072.81z"/>
		<path class="st2" d="M716.94,1074.05v16h-9.58v-39.99h19.93c9.89,0,15.22,4.8,15.22,10.98c0,5.37-3.31,8.27-6.59,9.46
			c2.25,0.73,5.64,2.79,5.64,9.95v1.97c0,2.69,0.03,5.75,0.65,7.62h-9.3c-0.8-1.74-0.95-4.73-0.95-8.98v-0.58
			c0-4.37-1.25-6.44-8.56-6.44H716.94z M716.94,1067.17h8.22c5.37,0,7.44-1.8,7.44-5.14c0-3.25-2.41-5.07-7.21-5.07h-8.46V1067.17z"
			/>
		<path class="st2" d="M766.83,1050.07h19.82c10.96,0,15.12,5.04,15.12,10.23c0,4.51-2.71,7.44-5.77,8.67
			c3.06,1.02,7.07,3.86,7.07,9.11c0,6.84-6.1,11.97-15.75,11.97h-20.49V1050.07z M785.53,1065.84c4.66,0,6.59-1.84,6.59-4.65
			c0-2.93-2.52-4.44-6.3-4.44h-9.35v9.09H785.53z M776.46,1083.38h8.85c5.3,0,7.7-1.95,7.7-5.58c0-3.22-2.36-5.28-7.76-5.28h-8.79
			V1083.38z"/>
		<path class="st2" d="M820.31,1074.05v16h-9.58v-39.99h19.93c9.89,0,15.22,4.8,15.22,10.98c0,5.37-3.31,8.27-6.59,9.46
			c2.25,0.73,5.64,2.79,5.64,9.95v1.97c0,2.69,0.03,5.75,0.65,7.62h-9.3c-0.8-1.74-0.95-4.73-0.95-8.98v-0.58
			c0-4.37-1.25-6.44-8.56-6.44H820.31z M820.31,1067.17h8.22c5.37,0,7.44-1.8,7.44-5.14c0-3.25-2.41-5.07-7.21-5.07h-8.46V1067.17z"
			/>
		<path class="st2" d="M885.83,1072.81h-21.69v10.16h23.93l-1.16,7.09h-32.29v-39.99h32.17v7.09h-22.65v8.57h21.69V1072.81z"/>
		<path class="st2" d="M905.23,1080.82l-3.54,9.24h-9.64l15.4-39.99h12.32l16.07,39.99h-10.31l-3.73-9.24H905.23z M919.69,1073.73
			c-3.22-8.44-5.27-13.83-6.37-17.42h-0.07c-1.12,3.94-3.38,10.21-5.97,17.42H919.69z"/>
		<path class="st2" d="M979.52,1077.73c-1.82,7.46-8.2,12.89-19.56,12.89c-14.38,0-21.18-8.97-21.18-20.35
			c0-10.96,7.02-20.78,21.66-20.78c12.08,0,17.93,6.25,19.04,12.93h-9.81c-0.95-3.08-3.38-6.15-9.55-6.15
			c-8.09,0-11.21,6.41-11.21,13.69c0,6.76,2.71,13.88,11.48,13.88c6.4,0,8.42-3.78,9.28-6.11H979.52z"/>
		<path class="st2" d="M987.07,1050.07h9.69v17.84c2.99-3.08,12.33-12.1,18.06-17.84h11.75l-18.23,16.62l18.89,23.37h-11.76
			l-13.92-17.76l-4.78,4.03v13.73h-9.69V1050.07z"/>
		<path class="st2" d="M1054.75,1090.05l-11.55-39.99h10.46c4.25,18.37,6.19,26.52,6.72,30.92h0.07c1.72-7.34,6.11-21.26,8.75-30.92
			h8.81c2.33,7.67,6.92,23.19,8.4,30.5h0.07c1.5-8.81,5.96-24.29,7.55-30.5h9.53l-12.29,39.99h-10.16
			c-2.39-8.85-6.38-21.78-7.98-28.63h-0.07c-1.65,7.12-5.74,20.58-8.16,28.63H1054.75z"/>
		<path class="st2" d="M1109.4,1050.07h9.81v15.6h18.25v-15.6h9.81v39.99h-9.81v-17.3h-18.25v17.3h-9.81V1050.07z"/>
		<path class="st2" d="M1189.37,1072.81h-21.69v10.16h23.93l-1.16,7.09h-32.29v-39.99h32.17v7.09h-22.65v8.57h21.69V1072.81z"/>
		<path class="st2" d="M1198.62,1090.05v-39.99h12.16c5.67,8.98,16.14,25.17,18.22,29.53h0.12c-0.51-4.17-0.5-11.12-0.5-17.68
			v-11.85h8.89v39.99h-11.53c-4.87-7.81-16.48-26.42-18.72-31.03h-0.12c0.33,3.5,0.44,11.71,0.44,18.87v12.16H1198.62z"/>
		<path class="st2" d="M1274.19,1090.05v-14.13c0-0.45-0.07-0.86-0.38-1.29l-15.64-24.57h11.1c3.5,6.03,8.06,14.06,10.32,18.4
			c1.97-4.19,6.94-12.61,10.37-18.4h10.26l-15.84,24.45c-0.19,0.28-0.37,0.46-0.37,1.28v14.26H1274.19z"/>
		<path class="st2" d="M1345.07,1069.92c0,11.13-7.58,20.71-22.31,20.71c-14.24,0-21.69-9.12-21.69-20.57
			c0-11.64,8.23-20.57,22.32-20.57C1336.66,1049.49,1345.07,1057.68,1345.07,1069.92z M1311.2,1069.89
			c0,7.81,3.89,13.71,11.93,13.71c8.72,0,11.81-6.44,11.81-13.57c0-7.56-3.51-13.51-11.97-13.51
			C1314.78,1056.52,1311.2,1062.1,1311.2,1069.89z"/>
		<path class="st2" d="M1362.93,1050.07v23.83c0,7.67,4.48,9.95,9.37,9.95c5.61,0,9.14-2.69,9.14-9.95v-23.83h9.82v23.4
			c0,13.67-9.08,17.16-19.08,17.16c-10.24,0-19.06-3.63-19.06-16.99v-23.56H1362.93z"/>
		<path class="st2" d="M1455.85,1077.73c-1.82,7.46-8.2,12.89-19.56,12.89c-14.38,0-21.18-8.97-21.18-20.35
			c0-10.96,7.02-20.78,21.66-20.78c12.08,0,17.93,6.25,19.04,12.93h-9.81c-0.95-3.08-3.38-6.15-9.55-6.15
			c-8.09,0-11.21,6.41-11.21,13.69c0,6.76,2.71,13.88,11.48,13.88c6.4,0,8.42-3.78,9.28-6.11H1455.85z"/>
		<path class="st2" d="M1472.99,1074.05v16h-9.58v-39.99h19.93c9.89,0,15.21,4.8,15.21,10.98c0,5.37-3.31,8.27-6.59,9.46
			c2.25,0.73,5.64,2.79,5.64,9.95v1.97c0,2.69,0.03,5.75,0.65,7.62h-9.29c-0.8-1.74-0.95-4.73-0.95-8.98v-0.58
			c0-4.37-1.25-6.44-8.56-6.44H1472.99z M1472.99,1067.17h8.22c5.37,0,7.44-1.8,7.44-5.14c0-3.25-2.41-5.07-7.21-5.07h-8.46V1067.17
			z"/>
		<path class="st2" d="M1538.51,1072.81h-21.69v10.16h23.93l-1.16,7.09h-32.29v-39.99h32.17v7.09h-22.65v8.57h21.69V1072.81z"/>
		<path class="st2" d="M1557.91,1080.82l-3.54,9.24h-9.64l15.4-39.99h12.32l16.07,39.99h-10.31l-3.73-9.24H1557.91z
			 M1572.37,1073.73c-3.22-8.44-5.27-13.83-6.37-17.42h-0.07c-1.12,3.94-3.38,10.21-5.97,17.42H1572.37z"/>
		<path class="st2" d="M1598.68,1057.15h-13.78v-7.09h37.33v7.09h-13.73v32.9h-9.82V1057.15z"/>
		<path class="st2" d="M1659.52,1072.81h-21.69v10.16h23.93l-1.16,7.09h-32.29v-39.99h32.17v7.09h-22.65v8.57h21.69V1072.81z"/>
		<path class="st2" d="M1684.89,1050.07h17.99c13.21,0,21.85,7.67,21.85,19.49c0,11.66-8.38,20.49-22.26,20.49h-17.57V1050.07z
			 M1694.7,1083.07h7.35c8.7,0,12.54-5.7,12.54-13.49c0-6.53-3.6-12.53-12.48-12.53h-7.41V1083.07z"/>
		<path class="st2" d="M1764.54,1072.81h-21.69v10.16h23.93l-1.16,7.09h-32.29v-39.99h32.17v7.09h-22.65v8.57h21.69V1072.81z"/>
		<path class="st2" d="M1781.22,1078.33c1.03,4.02,4.3,5.78,9.55,5.78c5.24,0,7.47-1.82,7.47-4.75c0-3.25-2.19-4.67-9.94-6.26
			c-12.34-2.55-15.4-6.51-15.4-11.91c0-6.97,5.91-11.7,16.65-11.7c12.04,0,16.84,5.71,17.49,11.56h-9.88
			c-0.47-2.46-2.02-5.13-7.87-5.13c-3.98,0-6.38,1.45-6.38,4.29c0,2.78,1.93,3.91,9.25,5.41c13.19,2.74,16.09,7.07,16.09,12.7
			c0,7.3-6.27,12.31-18.26,12.31c-11.51,0-17.58-5-18.67-12.29H1781.22z"/>
		<path class="st2" d="M1825.32,1050.07v39.99h-9.81v-39.99H1825.32z"/>
		<path class="st2" d="M1875.58,1090.05h-7.19c-0.38-1.23-0.63-2.6-0.75-3.94c-2.51,2.99-6.94,4.61-13.25,4.61
			c-13.17,0-20.52-8.77-20.52-20.16c0-12.02,7.93-21.07,22.23-21.07c11.67,0,18.54,5.81,19.64,12.63h-9.81
			c-0.93-2.68-3.33-5.85-9.96-5.85c-9.31,0-11.97,6.87-11.97,13.92c0,6.88,3.04,13.66,12.03,13.66c8.39,0,9.93-5.13,9.93-8.71v-0.36
			h-9.95v-7.09h19.57V1090.05z"/>
		<path class="st2" d="M1885.59,1090.05v-39.99h12.16c5.67,8.98,16.14,25.17,18.22,29.53h0.12c-0.51-4.17-0.5-11.12-0.5-17.68
			v-11.85h8.89v39.99h-11.53c-4.87-7.81-16.48-26.42-18.72-31.03h-0.12c0.33,3.5,0.44,11.71,0.44,18.87v12.16H1885.59z"/>
	</g>
</g>
</svg>
